<svg width="44" height="44" viewBox="0 0 44 44" fill="none" xmlns="http://www.w3.org/2000/svg">
<rect width="44" height="44" rx="12" fill="#F3F3F9"/>
<path d="M15 20C15 21.8565 15.7375 23.637 17.0503 24.9497C18.363 26.2625 20.1435 27 22 27M22 27C23.8565 27 25.637 26.2625 26.9497 24.9497C28.2625 23.637 29 21.8565 29 20M22 27V31M18 31H26M19 15C19 14.2044 19.3161 13.4413 19.8787 12.8787C20.4413 12.3161 21.2044 12 22 12C22.7956 12 23.5587 12.3161 24.1213 12.8787C24.6839 13.4413 25 14.2044 25 15V20C25 20.7956 24.6839 21.5587 24.1213 22.1213C23.5587 22.6839 22.7956 23 22 23C21.2044 23 20.4413 22.6839 19.8787 22.1213C19.3161 21.5587 19 20.7956 19 20V15Z" stroke="#5C5AF3" stroke-width="2" stroke-linecap="round" stroke-linejoin="round"/>
</svg>
