<svg width="44" height="44" viewBox="0 0 44 44" fill="none" xmlns="http://www.w3.org/2000/svg">
<rect width="44" height="44" rx="12" fill="#F5F3FB"/>
<path d="M18 26C18 26.7956 17.6839 27.5587 17.1213 28.1213C16.5587 28.6839 15.7956 29 15 29M26 26C26 26.7956 26.3161 27.5587 26.8787 28.1213C27.4413 28.6839 28.2044 29 29 29M22 26V30M17 23V20C17 19.7348 17.1054 19.4804 17.2929 19.2929C17.4804 19.1054 17.7348 19 18 19H26C26.2652 19 26.5196 19.1054 26.7071 19.2929C26.8946 19.4804 27 19.7348 27 20V23M13 17C13 16.4696 13.2107 15.9609 13.5858 15.5858C13.9609 15.2107 14.4696 15 15 15H29C29.5304 15 30.0391 15.2107 30.4142 15.5858C30.7893 15.9609 31 16.4696 31 17V21C31 21.5304 30.7893 22.0391 30.4142 22.4142C30.0391 22.7893 29.5304 23 29 23H15C14.4696 23 13.9609 22.7893 13.5858 22.4142C13.2107 22.0391 13 21.5304 13 21V17Z" stroke="#5C5AF3" stroke-width="2" stroke-linecap="round" stroke-linejoin="round"/>
</svg>
