<svg width="44" height="44" viewBox="0 0 44 44" fill="none" xmlns="http://www.w3.org/2000/svg">
<rect width="44" height="44" rx="12" fill="#F5F3FB"/>
<path d="M15 21C15.5304 21 16.0391 21.2107 16.4142 21.5858C16.7893 21.9609 17 22.4696 17 23V25H27V23C27 22.4696 27.2107 21.9609 27.5858 21.5858C27.9609 21.2107 28.4696 21 29 21M15 21C14.4696 21 13.9609 21.2107 13.5858 21.5858C13.2107 21.9609 13 22.4696 13 23V27C13 27.5304 13.2107 28.0391 13.5858 28.4142C13.9609 28.7893 14.4696 29 15 29H29C29.5304 29 30.0391 28.7893 30.4142 28.4142C30.7893 28.0391 31 27.5304 31 27V23C31 22.4696 30.7893 21.9609 30.4142 21.5858C30.0391 21.2107 29.5304 21 29 21M15 21V16C15 15.2044 15.3161 14.4413 15.8787 13.8787C16.4413 13.3161 17.2044 13 18 13H26C26.7956 13 27.5587 13.3161 28.1213 13.8787C28.6839 14.4413 29 15.2044 29 16V21M16 29V31M28 29V31" stroke="#5C5AF3" stroke-width="2" stroke-linecap="round" stroke-linejoin="round"/>
</svg>
