<svg width="44" height="44" viewBox="0 0 44 44" fill="none" xmlns="http://www.w3.org/2000/svg">
<rect width="44" height="44" rx="12" fill="#F3F3F9"/>
<path d="M14 25C14 24.4696 14.2107 23.9609 14.5858 23.5858C14.9609 23.2107 15.4696 23 16 23H17C17.5304 23 18.0391 23.2107 18.4142 23.5858C18.7893 23.9609 19 24.4696 19 25V28C19 28.5304 18.7893 29.0391 18.4142 29.4142C18.0391 29.7893 17.5304 30 17 30H16C15.4696 30 14.9609 29.7893 14.5858 29.4142C14.2107 29.0391 14 28.5304 14 28V25ZM14 25V22C14 19.8783 14.8429 17.8434 16.3431 16.3431C17.8434 14.8429 19.8783 14 22 14C24.1217 14 26.1566 14.8429 27.6569 16.3431C29.1571 17.8434 30 19.8783 30 22V25M30 25C30 24.4696 29.7893 23.9609 29.4142 23.5858C29.0391 23.2107 28.5304 23 28 23H27C26.4696 23 25.9609 23.2107 25.5858 23.5858C25.2107 23.9609 25 24.4696 25 25V28C25 28.5304 25.2107 29.0391 25.5858 29.4142C25.9609 29.7893 26.4696 30 27 30H28C28.5304 30 29.0391 29.7893 29.4142 29.4142C29.7893 29.0391 30 28.5304 30 28V25Z" stroke="#5C5AF3" stroke-width="2" stroke-linecap="round" stroke-linejoin="round"/>
</svg>
