<svg width="44" height="44" viewBox="0 0 44 44" fill="none" xmlns="http://www.w3.org/2000/svg">
<rect width="44" height="44" rx="12" fill="#F3F3F9"/>
<path d="M24 25L28.07 29.284C28.4128 29.6447 28.8632 29.8845 29.3538 29.9674C29.8444 30.0503 30.3487 29.9719 30.7909 29.744C31.2332 29.516 31.5896 29.1508 31.8067 28.7031C32.0238 28.2554 32.0899 27.7494 31.995 27.261L30.395 19.029M18 19V21M17 20H19M24 20H26M25.5 15C26.8261 15 28.0978 15.5268 29.0355 16.4645C29.9732 17.4021 30.5 18.6739 30.5 20C30.5 21.3261 29.9732 22.5979 29.0355 23.5355C28.0978 24.4732 26.8261 25 25.5 25H20L15.985 29.227C15.6416 29.5886 15.1899 29.8288 14.6981 29.9113C14.2063 29.9939 13.7009 29.9143 13.2583 29.6847C12.8156 29.4551 12.4595 29.0878 12.2438 28.6382C12.028 28.1886 11.9642 27.681 12.062 27.192L13.696 19.019C13.9228 17.8855 14.5354 16.8655 15.4295 16.1328C16.3236 15.4 17.444 14.9997 18.6 15H25.5Z" stroke="#5C5AF3" stroke-width="2" stroke-linecap="round" stroke-linejoin="round"/>
</svg>
